Simulation
nRows=36
nColumns=15
endheader
time  TH_x TH_y TH_z SC_y  SC_z  SC_x  AC_y  AC_z  AC_x  GH_y  GH_z  GH_yy  EL_x  PS_y
0.0  0.000000  0.000000  0.000000  -29.079792604144366  -0.349434470603544  -2.597425317677935  49.96476894136068  7.50858719656845  -3.1985872833032114  40.17414139054782  9.383491201899327  -10.17827643316161  22.84049547644353  0.000000
0.031  0.000000  0.000000  0.000000  -29.057402833414237  -0.20946171073268385  -2.30580132671219  49.71564775122039  7.526330006065809  -3.4290501070438437  40.06307241323762  9.566541914578838  -10.2275429285233  22.81717375602382  0.000000
0.062  0.000000  0.000000  0.000000  -28.910910644520794  -0.18789057811142762  -2.0873182722183334  49.57247346166725  7.443656404610893  -3.692453512623795  39.99256587497559  9.711462901294247  -10.220330632946022  22.76669948175013  0.000000
0.093  0.000000  0.000000  0.000000  -28.91083739499844  -0.22127102877433008  -1.896955023164497  49.48765039412079  7.283812558716117  -3.911249892174473  39.94731166593447  9.864280510291609  -10.197823902733145  22.73263584228302  0.000000
0.124  0.000000  0.000000  0.000000  -28.910478758153687  -0.2879961862437153  -1.75572726457792  49.437112673887114  7.117576715821347  -4.095361043128926  39.89438233992022  10.036018807436935  -10.20571058037219  22.660792356476  0.000000
0.155  0.000000  0.000000  0.000000  -28.954315604576436  -0.3758972847361054  -1.642682393579572  49.435803762499944  6.966248117391952  -4.250686356975732  39.82879211815835  10.281752112014102  -10.243605925451874  22.544714911311697  0.000000
0.186  0.000000  0.000000  0.000000  -29.00846895756625  -0.4649566352259512  -1.5511133806346273  49.44710320260611  6.824209692075286  -4.3712463885979815  39.71085461381039  10.61802780862899  -10.344322469771623  22.400351673207684  0.000000
0.217  0.000000  0.000000  0.000000  -29.086055302294778  -0.5527104365171166  -1.4733941280704088  49.4880826657405  6.695194538042133  -4.46962287912053  39.53664315056969  11.068764751651841  -10.499990404185695  22.223950152559212  0.000000
0.248  0.000000  0.000000  0.000000  -29.17835392037464  -0.6319841100083181  -1.4032318956516299  49.531872120980225  6.57378436735003  -4.543251002174008  39.28913480208626  11.627566469532827  -10.7155483876898  22.031133997659275  0.000000
0.279  0.000000  0.000000  0.000000  -29.2827611566061  -0.7000633541259207  -1.336482865696859  49.58823671798959  6.465141664687063  -4.603663756775957  38.97265214861835  12.28962195009454  -10.971738775164175  21.825918524288333  0.000000
0.31  0.000000  0.000000  0.000000  -29.389120376494045  -0.7530025627840614  -1.267352458014473  49.63920947728592  6.375981190232023  -4.652322553457845  38.587546191222096  13.031715431219139  -11.24970368493358  21.631247440614132  0.000000
0.34099999999999997  0.000000  0.000000  0.000000  -29.494253592434735  -0.7904739803193773  -1.194046259834488  49.69810918234355  6.30971724578748  -4.690551599019274  38.131698782183015  13.842974775837234  -11.53314414837762  21.453220686928862  0.000000
0.372  0.000000  0.000000  0.000000  -29.601388774681947  -0.8179454215797429  -1.1129309849509492  49.77167704288159  6.26784834374778  -4.712701827862513  37.58811298075604  14.711344999744572  -11.81527823717713  21.309001444118312  0.000000
0.403  0.000000  0.000000  0.000000  -29.716240087332384  -0.8405113045345434  -1.021223623984549  49.87906255677463  6.247284857882358  -4.7141419979563555  36.932347210544684  15.632692778964792  -12.09385700151025  21.208751204355774  0.000000
0.434  0.000000  0.000000  0.000000  -29.839421786405104  -0.861164234734695  -0.9141896374466025  50.02444815895502  6.249131639102271  -4.696289495879042  36.14666672908581  16.599250706956326  -12.356477237617554  21.17438030073276  0.000000
0.46499999999999997  0.000000  0.000000  0.000000  -29.96026478491118  -0.877272728114579  -0.7895160079285022  50.201656996061246  6.2745624071109445  -4.664501617726749  35.23522563664674  17.605177176924503  -12.580739963531371  21.211014402090278  0.000000
0.496  0.000000  0.000000  0.000000  -30.066180173388894  -0.8834082076702987  -0.6467196976159789  50.3965631053775  6.322358330685778  -4.626253372999628  34.22776182129917  18.652046356482735  -12.742709885875813  21.306639206873818  0.000000
0.527  0.000000  0.000000  0.000000  -30.144074565484217  -0.8716731613435247  -0.48635598627990556  50.594004622894246  6.387277482101402  -4.58457497637849  33.17169420740878  19.746057656787507  -12.831363572756427  21.427417450777465  0.000000
0.558  0.000000  0.000000  0.000000  -30.190791600357922  -0.8359345505175332  -0.30740516492023967  50.786169107769155  6.46164017087216  -4.541663204452286  32.11839782097952  20.89616026901315  -12.855588556167211  21.540645809624866  0.000000
0.589  0.000000  0.000000  0.000000  -30.213526856458476  -0.7724719060514803  -0.10697346650980927  50.9681363702331  6.540818697525742  -4.497738101528155  31.114444582710277  22.105093758688216  -12.841560467035242  21.62726623842224  0.000000
0.62  0.000000  0.000000  0.000000  -30.225509467740967  -0.679347484927114  0.11827940839624324  51.14211077645405  6.622707125453858  -4.4524235756057005  30.194663789448935  23.371768962613285  -12.826927383387769  21.681178860787597  0.000000
0.651  0.000000  0.000000  0.000000  -30.239432564067506  -0.5573427122701184  0.37190983069560896  51.31154531289633  6.707241835423584  -4.404551752472114  29.378392670559386  24.69237315555973  -12.847380807604146  21.701332852613326  0.000000
0.6819999999999999  0.000000  0.000000  0.000000  -30.257575522139096  -0.4105327994840962  0.6564276977754541  51.48077922226279  6.794252745754676  -4.3563364625806695  28.663351248586746  26.064312661097556  -12.923928728782187  21.68892878873035  0.000000
0.713  0.000000  0.000000  0.000000  -30.270188429063513  -0.24549680540307964  0.9742058215503991  51.64758700407418  6.8839750827669555  -4.315273435954176  28.02878617712803  27.48491841010381  -13.052459182857623  21.650715876184385  0.000000
0.744  0.000000  0.000000  0.000000  -30.262351646907103  -0.06921327422186235  1.3280733258636854  51.80854278884041  6.975268871910152  -4.292388628647217  27.445041977240095  28.951180988579974  -13.21159498393797  21.596519999655957  0.000000
0.775  0.000000  0.000000  0.000000  -30.22567469172851  0.11248739088960026  1.7229470981318613  51.9609081847692  7.066328695423178  -4.296858577869472  26.889499042301356  30.455289465608047  -13.378359928087344  21.534539067403454  0.000000
0.806  0.000000  0.000000  0.000000  -30.163117390284196  0.296540278405171  2.165748118589273  52.10981581266022  7.154998099606754  -4.332086298597955  26.35606758546888  31.982193339493552  -13.545489930541951  21.464625088938185  0.000000
0.837  0.000000  0.000000  0.000000  -30.086311749660755  0.4824749843426497  2.6653244247834453  52.263401017962856  7.240015814245754  -4.396496620441131  25.854927286844585  33.50879655465464  -13.721626913827066  21.38073106704717  0.000000
0.868  0.000000  0.000000  0.000000  -30.00750177453138  0.6710230022232068  3.2283069723254485  52.430250599994096  7.320683234446033  -4.486914925210284  25.401887525702346  35.01042313307706  -13.923001054340777  21.27466879725049  0.000000
0.899  0.000000  0.000000  0.000000  -29.933464601698944  0.862177996103515  3.8569114945703515  52.61159391461198  7.396347698302395  -4.601360958687531  25.008148245891356  36.466574729155184  -14.161143330240767  21.141942036298815  0.000000
0.9299999999999999  0.000000  0.000000  0.000000  -29.864374956527254  1.0551846149208672  4.548594992159647  52.80364135256265  7.464686821107838  -4.740658044125017  24.675703404742265  37.865577489913846  -14.440797965771369  20.98111579913933  0.000000
0.961  0.000000  0.000000  0.000000  -29.798714356035635  1.2496179432906045  5.299289312569193  52.996841517741146  7.522266695359321  -4.906995741210615  24.402394187415087  39.20202163105182  -14.763134912398662  20.793166916605916  0.000000
0.992  0.000000  0.000000  0.000000  -29.737361305061878  1.4471473080948605  6.104351078769751  53.18011743816308  7.567219691550001  -5.1031004398605235  24.18977278198583  40.47404143360248  -15.134932664646161  20.579076111333542  0.000000
1.023  0.000000  0.000000  0.000000  -29.68575243687676  1.6516945852305258  6.9619323774729605  53.34046855002047  7.599470368893821  -5.3310745205144565  24.046333429042097  41.68056669273999  -15.569755064201813  20.340750141789826  0.000000
1.054  0.000000  0.000000  0.000000  -29.652542886142744  1.8694106130612365  7.871852885568454  53.468886298836615  7.620226926261341  -5.589993901117933  23.981199274760456  42.82237883521196  -16.082815879652816  20.080376562214692  0.000000
1.085  0.000000  0.000000  0.000000  -29.643798720126025  2.1062998046386467  8.83686469185775  53.56237577994036  7.63003188637965  -5.874865214770564  23.990127543270837  43.902540913215205  -16.67344439004223  19.802883367589658  0.000000
